<svg width="80" height="80" viewBox="0 0 80 80" fill="none" class="icon">
<path d="M11.3334 33.4327C11.3334 24.7494 18.9624 18 28 18C32.6188 18 36.7051 20.167 39.6536 23C39.8471 23.1859 40.1529 23.1859 40.3465 23C43.2949 20.167 47.3812 18 52 18C61.0376 18 68.6667 24.7494 68.6667 33.4327C68.6667 39.45 66.1015 44.7659 62.5026 49.294C58.9087 53.8157 54.1956 57.6669 49.6602 60.8089C47.9295 62.0079 46.19 63.1058 44.6074 63.9118C43.1041 64.6774 41.4558 65.3333 40 65.3333C38.5443 65.3333 36.896 64.6774 35.3927 63.9118C33.8101 63.1058 32.0706 62.0079 30.3399 60.8089C25.8045 57.6669 21.0914 53.8157 17.4975 49.294C13.8985 44.7659 11.3334 39.45 11.3334 33.4327ZM28 22C20.8325 22 15.3334 27.283 15.3334 33.4327C15.3334 38.2597 17.3836 42.722 20.6289 46.8052C23.8792 50.8945 28.2388 54.4872 32.6178 57.5209C34.2764 58.6699 35.8507 59.6562 37.208 60.3475C37.9386 60.7195 38.5251 60.9629 38.9772 61.1143C39.4172 61.2617 39.7629 61.3333 40 61.3333C40.2372 61.3333 40.5829 61.2617 41.0228 61.1143C41.475 60.9629 42.0615 60.7195 42.7921 60.3474C44.1493 59.6562 45.7237 58.6699 47.3823 57.5209C51.7612 54.4872 56.1209 50.8945 59.3712 46.8052C62.6165 42.722 64.6667 38.2596 64.6667 33.4327C64.6667 27.283 59.1675 22 52 22C47.8241 22 43.9735 24.486 41.5855 27.5916C41.207 28.084 40.6211 28.3725 40 28.3725C39.379 28.3725 38.7931 28.084 38.4145 27.5916C36.0266 24.486 32.176 22 28 22Z" fill="#E18D47" stroke="white" stroke-linecap="round" stroke-linejoin="round"/>
</svg>
