<svg width="42" height="42" viewBox="0 0 42 42" fill="none" xmlns="http://www.w3.org/2000/svg">
<path d="M21 37.8C24.1189 37.8 27.1101 36.561 29.3156 34.3556C31.521 32.1502 32.76 29.159 32.76 26.04V15.96C32.76 12.8411 31.521 9.84986 29.3156 7.64444C27.1101 5.43901 24.1189 4.20001 21 4.20001C17.8811 4.20001 14.8899 5.43901 12.6844 7.64444C10.479 9.84986 9.24 12.8411 9.24 15.96V26.04C9.24 29.159 10.479 32.1502 12.6844 34.3556C14.8899 36.561 17.8811 37.8 21 37.8ZM10.92 15.96C10.92 13.2866 11.982 10.7227 13.8724 8.83238C15.7627 6.94201 18.3266 5.88001 21 5.88001C23.6734 5.88001 26.2373 6.94201 28.1276 8.83238C30.018 10.7227 31.08 13.2866 31.08 15.96V26.04C31.08 28.7134 30.018 31.2773 28.1276 33.1676C26.2373 35.058 23.6734 36.12 21 36.12C18.3266 36.12 15.7627 35.058 13.8724 33.1676C11.982 31.2773 10.92 28.7134 10.92 26.04V15.96Z" fill="white"/>
<path id="arrow" d="M20.16 20.58H20.2356L20.4036 20.7564C20.4817 20.8351 20.5746 20.8976 20.677 20.9403C20.7793 20.9829 20.8891 21.0049 21 21.0049C21.1109 21.0049 21.2207 20.9829 21.323 20.9403C21.4254 20.8976 21.5183 20.8351 21.5964 20.7564L21.7644 20.58H21.84V20.5044L26.6364 15.7164L25.4436 14.5236L21.84 18.1356V9.23999H20.16V18.1356L16.5564 14.5236L15.3636 15.7164L20.16 20.5044V20.58Z" fill="white"/>
<style>
	#arrow{
		animation: bounce 2s infinite;
	}
	@keyframes bounce {
	  0%, 20%, 50%, 80%, 100% {
	    transform: translateY(0);
	  }
	  40% {
	    transform: translateY(13px);
	  }
	  60% {
	    transform: translateY(7px);
	  }
	}
</style>
</svg>
