<svg width="20" height="18" viewBox="0 0 20 18" fill="none" xmlns="http://www.w3.org/2000/svg">
<path d="M10 17.34C10 17.34 1 12.3 1 6.18001C1 5.09811 1.37484 4.04962 2.06076 3.21294C2.74667 2.37626 3.70128 1.80307 4.76218 1.59089C5.82307 1.37871 6.92471 1.54065 7.87966 2.04916C8.83461 2.55767 9.58388 3.38133 10 4.38001C10.4161 3.38133 11.1654 2.55767 12.1203 2.04916C13.0753 1.54065 14.1769 1.37871 15.2378 1.59089C16.2987 1.80307 17.2533 2.37626 17.9392 3.21294C18.6252 4.04962 19 5.09811 19 6.18001C19 12.3 10 17.34 10 17.34Z" stroke="black" stroke-width="1.2" stroke-linecap="round" stroke-linejoin="round"/>
</svg>
